# File created by Blade
# Date/Time:  Thu Jan 22 16:31:11 2015
# Frame Rate: 120.000 fps
#------------------------------------------------------
:FULLY-SPECIFIED
:DEGREES
519
root 26.466384 18.009950 -0.653902 1.573545 27.018566 -22.010273
RightUpLeg 16.382635 -7.767431 -35.791109
RightLeg -0.220262 -0.000000 0.000000
RightFoot -17.708519 -14.480724 39.479370
RightToeBase 16.840284 -0.000000 -0.000000
LeftUpLeg -104.217259 28.566852 5.642727
LeftLeg 133.087930 -0.000000 -0.000000
LeftFoot -32.444575 1.241110 -22.168786
LeftToeBase -13.517567 -0.000000 0.000000
Spine 32.216441 -1.167054 -52.622279
RightShoulder -12.044235 2.373024 -48.248346
RightArm 19.651920 60.888395 0.613614
RightForeArm 0.021307 -0.000000 15.431938
RightHand 14.417548 0.000000 -51.719970
RightHandThumb1 -24.326973 -0.000000 -32.862282
LeftShoulder -17.608128 39.456104 14.788974
LeftArm 83.457428 -44.471328 -124.398850
LeftForeArm -11.679700 0.000000 12.277291
LeftHand -28.141570 0.000000 100.085094
LeftHandThumb1 -26.253704 0.000000 33.147579
Head 10.820925 13.457311 -52.199245
520
root 26.470992 18.011288 -0.658627 1.546389 26.967728 -21.960159
RightUpLeg 16.376790 -7.734021 -35.854694
RightLeg -0.203101 -0.000000 0.000000
RightFoot -17.688167 -14.453846 39.462722
RightToeBase 16.803968 -0.000000 -0.000000
LeftUpLeg -104.125925 28.566336 5.684709
LeftLeg 133.094431 -0.000000 -0.000000
LeftFoot -32.382445 1.163127 -22.266294
LeftToeBase -13.505894 -0.000000 0.000000
Spine 32.251805 -1.098562 -52.685680
RightShoulder -12.074916 2.393877 -48.076840
RightArm 19.941346 61.501369 0.222709
RightForeArm 0.845220 -0.000000 15.259571
RightHand 15.426979 -0.000000 -51.518597
RightHandThumb1 -24.326973 -0.000000 -32.862282
LeftShoulder -17.602954 39.606109 14.832731
LeftArm 83.477785 -44.386896 -124.320936
LeftForeArm -11.910313 0.000000 12.153369
LeftHand -28.118042 -0.000000 99.986017
LeftHandThumb1 -26.253704 0.000000 33.147579
Head 10.913394 13.660211 -52.112128
521
root 26.475848 18.013500 -0.662656 1.541289 26.915522 -21.917200
RightUpLeg 16.350445 -7.728164 -35.909735
RightLeg -0.188954 -0.000000 0.000000
RightFoot -17.655586 -14.421740 39.434996
RightToeBase 16.804233 -0.000000 -0.000000
LeftUpLeg -104.048970 28.571615 5.724522
LeftLeg 133.099957 -0.000000 -0.000000
LeftFoot -32.336895 1.083450 -22.357308
LeftToeBase -13.540527 -0.000000 0.000000
Spine 32.281914 -1.121051 -52.759437
RightShoulder -12.182922 2.447873 -47.981073
RightArm 20.564653 62.096680 0.252531
RightForeArm 0.438414 -0.000000 15.357365
RightHand 14.216192 -0.000000 -52.064026
RightHandThumb1 -24.326973 -0.000000 -32.862282
LeftShoulder -17.666104 39.694133 14.769571
LeftArm 83.468315 -44.388009 -124.173207
LeftForeArm -12.141513 -0.000000 12.014013
LeftHand -28.088590 -0.000000 99.925077
LeftHandThumb1 -26.253704 0.000000 33.147579
Head 10.898433 13.833247 -52.126685
522
root 26.480897 18.015148 -0.668880 1.546037 26.863605 -21.860764
RightUpLeg 16.320812 -7.697949 -35.972626
RightLeg -0.180655 -0.000000 0.000000
RightFoot -17.623516 -14.424109 39.402100
RightToeBase 16.791972 -0.000000 -0.000000
LeftUpLeg -103.987599 28.558295 5.764771
LeftLeg 133.108593 -0.000000 -0.000000
LeftFoot -32.248147 0.986623 -22.495057
LeftToeBase -13.591681 -0.000000 0.000000
Spine 32.306858 -1.094736 -52.823619
RightShoulder -12.261546 2.464197 -47.816750
RightArm 20.809439 62.547456 -0.241345
RightForeArm 0.843672 -0.000000 15.175981
RightHand 14.891721 -0.000000 -51.672128
RightHandThumb1 -24.326973 -0.000000 -32.862282
LeftShoulder -17.677314 39.780476 14.757507
LeftArm 83.569988 -44.363347 -124.192145
LeftForeArm -12.242946 -0.000000 11.890058
LeftHand -28.081405 -0.000000 99.887678
LeftHandThumb1 -26.253704 0.000000 33.147579
Head 10.980842 13.991607 -52.087766
